Audio ENGLISH
Sub ITALIANO





Batman: Under the Red Hood is a 2010 direct-to-video animated film based on the Batman storylines \"A Death in the Family\" and \"Under the Hood\". The film is the eighth in the DC Universe Animated Original Movies line released by Warner Premiere and Warner Bros. Animation. It was released on July 27, 2010. The film stars Bruce Greenwood as Bruce Wayne/Batman, Jensen Ackles as Red Hood/Jason Todd, and John DiMaggio as the Joker. The screenplay was written by Judd Winick, who also wrote the \"Under the Hood\" run in the monthly Batman comic.



Ra\'s al Ghul hires the Joker to help him with his latest terrorist scheme, but soon regrets it when the Clown Prince of Crime kidnaps Jason Todd, the second Robin. In a warehouse in Sarajevo, Bosnia, the Joker beats Jason with a crowbar, ultimately leaving him half-dead on the warehouse floor. Jason tries to get out, but the Joker put a lock on the door. He then sees a bomb ticking in the warehouse. Batman arrives too late, and Jason is killed in the explosion.

Five years later, in Gotham City, the vigilante/crime lord Red Hood has assembled a meeting with the city\'s top-earning thugs and dealers. The Red Hood announces his takeover of the drug trade and tells them to give him 40 percent of their earnings in return for protection from Batman and Black Mask, but he also tells them not sell their drugs to children. As a warning, he tosses them a bag containing the severed heads of all their lieutenants.

At the docks, Batman chases some thugs in a moving truck and crashes it into a wall. He tries to interrogate them until the box that was in their truck opens and reveals Amazo, a powerful android with the ability to copy the abilities of every metahuman it encounters. Nightwing (Dick Grayson), who was once the first Robin, arrives on the scene to help him. After a short fight, the robot is defeated and Batman interrogates the three thugs at the location and finds out they are working for the Red Hood. The Red Hood then kills the thugs with a sniper rifle. Batman chases the Red Hood, who leads him to the Ace Chemical Plant — the site of the first Red Hood\'s transformation into the Joker. The current Red Hood rigs an explosion in the plant and escapes.

Later in the Batcave, Nightwing appears, having returned after he learned of the Red Hood. Batman tells Nightwing that since the Red Hood began his reign of terror, drug trafficking has gone up, but crime has gone down. Batman and Nightwing proceed to Arkham Asylum to interrogate the Joker about the Red Hood. The Joker taunts Batman by reminding him of Jason\'s death, tempting Batman to kill him, then denies any involvement with his successor.





Directed by Brandon Vietti
Produced by Bruce Timm
Bobbi Page
Alan Burnett
Sam Register
Benjamin Melniker
Michael Uslan
Written by Judd Winick
Based on Batman by
Bob Kane and Bill Finger
Starring Bruce Greenwood
Neil Patrick Harris
Jensen Ackles
John DiMaggio
Jason Isaacs
Wade Williams
Music by Christopher Drake
Studio Warner Bros. Animation
Warner Premiere
DC Comics
Distributed by Warner Home Video








[URL=http://img829.imageshack.us/i/batmanundertheredhood20w.png/]

General
Complete name : D:\\Batman.Under.the.Red.Hood.2010.1080p.BluRay.X264-QCF\\batman.under.the.red.hood.2010.1080p.bluray.x264-qcf.mkv
Format : Matroska
File size : 4.38 GiB
Duration : 1h 15mn
Overall bit rate : 8 265 Kbps
Encoded date : UTC 2010-07-24 07:23:38
Writing application : mkvmerge v3.0.0 (\'Hang up your Hang-Ups\') built on Dec 12 2009 15:20:35
Writing library : libebml v0.7.9 + libmatroska v0.8.1

Video
ID : 1
Format : AVC
Format/Info : Advanced Video Codec
Format profile : High@L4.1
Format settings, CABAC : Yes
Format settings, ReFrames : 4 frames
Codec ID : V_MPEG4/ISO/AVC
Duration : 1h 15mn
Bit rate : 7 621 Kbps
Width : 1 920 pixels
Height : 1 080 pixels
Display aspect ratio : 16:9
Frame rate : 23.976 fps
Color space : YUV
Chroma subsampling : 4:2:0
Bit depth : 8 bits
Scan type : Progressive
Bits/(Pixel*Frame) : 0.153
Stream size : 3.95 GiB (90%)
Writing library : x264 core 98 r1649 c54c47d
Encoding settings : cabac=1 / ref=4 / deblock=1:0:0 / analyse=0x3:0x113 / me=umh / subme=7 / psy=1 / psy_rd=1.00:0.00 / mixed_ref=1 / me_range=16 / chroma_me=1 / trellis=1 / 8x8dct=1 / cqm=0 / deadzone=21,11 / fast_pskip=1 / chroma_qp_offset=-2 / threads=6 / sliced_threads=0 / nr=0 / decimate=1 / interlaced=0 / constrained_intra=0 / bframes=3 / b_pyramid=2 / b_adapt=1 / b_bias=0 / direct=1 / weightb=1 / weightp=2 / keyint=250 / keyint_min=25 / scenecut=40 / intra_refresh=0 / rc_lookahead=40 / rc=2pass / mbtree=1 / bitrate=7621 / ratetol=1.0 / qcomp=0.60 / qpmin=10 / qpmax=51 / qpstep=4 / cplxblur=20.0 / qblur=0.5 / ip_ratio=1.40 / aq=1:1.00
Language : English

Audio
ID : 2
Format : AC-3
Format/Info : Audio Coding 3
Mode extension : CM (complete main)
Codec ID : A_AC3
Duration : 1h 15mn
Bit rate mode : Constant
Bit rate : 640 Kbps
Channel(s) : 6 channels
Channel positions : Front: L C R, Side: L R, LFE
Sampling rate : 48.0 KHz
Bit depth : 16 bits
Stream size : 347 MiB (8%)